{
	"patcher" : 	{
		"fileversion" : 1,
		"appversion" : 		{
			"major" : 8,
			"minor" : 6,
			"revision" : 1,
			"architecture" : "x64",
			"modernui" : 1
		}
,
		"classnamespace" : "box",
		"rect" : [ 34.0, 100.0, 1412.0, 983.0 ],
		"bglocked" : 0,
		"openinpresentation" : 0,
		"default_fontsize" : 12.0,
		"default_fontface" : 0,
		"default_fontname" : "Arial",
		"gridonopen" : 1,
		"gridsize" : [ 15.0, 15.0 ],
		"gridsnaponopen" : 1,
		"objectsnaponopen" : 1,
		"statusbarvisible" : 2,
		"toolbarvisible" : 1,
		"lefttoolbarpinned" : 0,
		"toptoolbarpinned" : 0,
		"righttoolbarpinned" : 0,
		"bottomtoolbarpinned" : 0,
		"toolbars_unpinned_last_save" : 0,
		"tallnewobj" : 0,
		"boxanimatetime" : 200,
		"enablehscroll" : 1,
		"enablevscroll" : 1,
		"devicewidth" : 0.0,
		"description" : "",
		"digest" : "",
		"tags" : "",
		"style" : "",
		"subpatcher_template" : "",
		"assistshowspatchername" : 0,
		"boxes" : [ 			{
				"box" : 				{
					"comment" : "",
					"id" : "obj-64",
					"index" : 0,
					"maxclass" : "inlet",
					"numinlets" : 0,
					"numoutlets" : 1,
					"outlettype" : [ "" ],
					"patching_rect" : [ 80.701753616333008, 417.543855667114258, 30.0, 30.0 ]
				}

			}
, 			{
				"box" : 				{
					"id" : "obj-45",
					"maxclass" : "comment",
					"numinlets" : 1,
					"numoutlets" : 0,
					"patching_rect" : [ 76.837792348116636, 659.525875747203827, 27.460425473749638, 20.0 ],
					"presentation" : 1,
					"presentation_rect" : [ 191.434366069005591, 501.144800961017609, 27.460425473749638, 20.0 ],
					"text" : "1",
					"textjustification" : 1
				}

			}
, 			{
				"box" : 				{
					"activebgcolor" : [ 0.898039, 0.898039, 0.898039, 1.0 ],
					"id" : "obj-46",
					"ignoreclick" : 1,
					"maxclass" : "live.button",
					"numinlets" : 1,
					"numoutlets" : 1,
					"outlettype" : [ "" ],
					"parameter_enable" : 1,
					"patching_rect" : [ 80.262449633330107, 636.923137664794922, 20.67669153213501, 20.67669153213501 ],
					"presentation" : 1,
					"presentation_rect" : [ 194.826233039812905, 500.806455194950104, 20.67669153213501, 20.67669153213501 ],
					"saved_attribute_attributes" : 					{
						"activebgcolor" : 						{
							"expression" : "themecolor.theme_editing_bgcolor"
						}
,
						"valueof" : 						{
							"parameter_enum" : [ "off", "on" ],
							"parameter_longname" : "live.button[9]",
							"parameter_mmax" : 1,
							"parameter_modmode" : 0,
							"parameter_shortname" : "live.button",
							"parameter_type" : 2
						}

					}
,
					"varname" : "live.button[9]"
				}

			}
, 			{
				"box" : 				{
					"id" : "obj-47",
					"maxclass" : "comment",
					"numinlets" : 1,
					"numoutlets" : 0,
					"patching_rect" : [ 106.289845000952482, 659.525875747203827, 27.460425473749638, 20.0 ],
					"presentation" : 1,
					"presentation_rect" : [ 214.111057601140601, 501.144800961017609, 27.460425473749638, 20.0 ],
					"text" : "2",
					"textjustification" : 1
				}

			}
, 			{
				"box" : 				{
					"activebgcolor" : [ 0.898039, 0.898039, 0.898039, 1.0 ],
					"id" : "obj-48",
					"ignoreclick" : 1,
					"maxclass" : "live.button",
					"numinlets" : 1,
					"numoutlets" : 1,
					"outlettype" : [ "" ],
					"parameter_enable" : 1,
					"patching_rect" : [ 109.714502286165953, 636.923137664794922, 20.67669153213501, 20.67669153213501 ],
					"presentation" : 1,
					"presentation_rect" : [ 217.502924571947915, 500.806455194950104, 20.67669153213501, 20.67669153213501 ],
					"saved_attribute_attributes" : 					{
						"activebgcolor" : 						{
							"expression" : "themecolor.theme_editing_bgcolor"
						}
,
						"valueof" : 						{
							"parameter_enum" : [ "off", "on" ],
							"parameter_longname" : "live.button[10]",
							"parameter_mmax" : 1,
							"parameter_modmode" : 0,
							"parameter_shortname" : "live.button",
							"parameter_type" : 2
						}

					}
,
					"varname" : "live.button[10]"
				}

			}
, 			{
				"box" : 				{
					"id" : "obj-49",
					"maxclass" : "comment",
					"numinlets" : 1,
					"numoutlets" : 0,
					"patching_rect" : [ 135.741897653788328, 659.525875747203827, 27.460425473749638, 20.0 ],
					"presentation" : 1,
					"presentation_rect" : [ 236.930715393275023, 501.144800961017609, 27.460425473749638, 20.0 ],
					"text" : "3",
					"textjustification" : 1
				}

			}
, 			{
				"box" : 				{
					"activebgcolor" : [ 0.898039, 0.898039, 0.898039, 1.0 ],
					"id" : "obj-50",
					"ignoreclick" : 1,
					"maxclass" : "live.button",
					"numinlets" : 1,
					"numoutlets" : 1,
					"outlettype" : [ "" ],
					"parameter_enable" : 1,
					"patching_rect" : [ 138.089283072137164, 636.923137664794922, 20.67669153213501, 20.67669153213501 ],
					"presentation" : 1,
					"presentation_rect" : [ 240.322582364082336, 500.806455194950104, 20.67669153213501, 20.67669153213501 ],
					"saved_attribute_attributes" : 					{
						"activebgcolor" : 						{
							"expression" : "themecolor.theme_editing_bgcolor"
						}
,
						"valueof" : 						{
							"parameter_enum" : [ "off", "on" ],
							"parameter_longname" : "live.button[11]",
							"parameter_mmax" : 1,
							"parameter_modmode" : 0,
							"parameter_shortname" : "live.button",
							"parameter_type" : 2
						}

					}
,
					"varname" : "live.button[11]"
				}

			}
, 			{
				"box" : 				{
					"id" : "obj-51",
					"maxclass" : "comment",
					"numinlets" : 1,
					"numoutlets" : 0,
					"patching_rect" : [ 165.193950306624174, 659.525875747203827, 27.460425473749638, 20.0 ],
					"presentation" : 1,
					"presentation_rect" : [ 259.607406925410032, 501.144800961017609, 27.460425473749638, 20.0 ],
					"text" : "4",
					"textjustification" : 1
				}

			}
, 			{
				"box" : 				{
					"activebgcolor" : [ 0.898039, 0.898039, 0.898039, 1.0 ],
					"id" : "obj-52",
					"ignoreclick" : 1,
					"maxclass" : "live.button",
					"numinlets" : 1,
					"numoutlets" : 1,
					"outlettype" : [ "" ],
					"parameter_enable" : 1,
					"patching_rect" : [ 166.694737705240641, 636.923137664794922, 20.67669153213501, 20.67669153213501 ],
					"presentation" : 1,
					"presentation_rect" : [ 262.999273896217346, 500.806455194950104, 20.67669153213501, 20.67669153213501 ],
					"saved_attribute_attributes" : 					{
						"activebgcolor" : 						{
							"expression" : "themecolor.theme_editing_bgcolor"
						}
,
						"valueof" : 						{
							"parameter_enum" : [ "off", "on" ],
							"parameter_longname" : "live.button[12]",
							"parameter_mmax" : 1,
							"parameter_modmode" : 0,
							"parameter_shortname" : "live.button",
							"parameter_type" : 2
						}

					}
,
					"varname" : "live.button[12]"
				}

			}
, 			{
				"box" : 				{
					"id" : "obj-53",
					"maxclass" : "comment",
					"numinlets" : 1,
					"numoutlets" : 0,
					"patching_rect" : [ 191.22134567424655, 659.525875747203827, 27.460425473749638, 20.0 ],
					"presentation" : 1,
					"presentation_rect" : [ 191.434366069005591, 523.821492493152618, 27.460425473749638, 20.0 ],
					"text" : "5",
					"textjustification" : 1
				}

			}
, 			{
				"box" : 				{
					"activebgcolor" : [ 0.898039, 0.898039, 0.898039, 1.0 ],
					"id" : "obj-54",
					"ignoreclick" : 1,
					"maxclass" : "live.button",
					"numinlets" : 1,
					"numoutlets" : 1,
					"outlettype" : [ "" ],
					"parameter_enable" : 1,
					"patching_rect" : [ 194.64600295946002, 636.923137664794922, 20.67669153213501, 20.67669153213501 ],
					"presentation" : 1,
					"presentation_rect" : [ 194.826233039812905, 523.483146727085114, 20.67669153213501, 20.67669153213501 ],
					"saved_attribute_attributes" : 					{
						"activebgcolor" : 						{
							"expression" : "themecolor.theme_editing_bgcolor"
						}
,
						"valueof" : 						{
							"parameter_enum" : [ "off", "on" ],
							"parameter_longname" : "live.button[13]",
							"parameter_mmax" : 1,
							"parameter_modmode" : 0,
							"parameter_shortname" : "live.button",
							"parameter_type" : 2
						}

					}
,
					"varname" : "live.button[13]"
				}

			}
, 			{
				"box" : 				{
					"id" : "obj-55",
					"maxclass" : "comment",
					"numinlets" : 1,
					"numoutlets" : 0,
					"patching_rect" : [ 220.673398327082396, 659.525875747203827, 27.460425473749638, 20.0 ],
					"presentation" : 1,
					"presentation_rect" : [ 214.111057601140601, 523.821492493152618, 27.460425473749638, 20.0 ],
					"text" : "6",
					"textjustification" : 1
				}

			}
, 			{
				"box" : 				{
					"activebgcolor" : [ 0.898039, 0.898039, 0.898039, 1.0 ],
					"id" : "obj-56",
					"ignoreclick" : 1,
					"maxclass" : "live.button",
					"numinlets" : 1,
					"numoutlets" : 1,
					"outlettype" : [ "" ],
					"parameter_enable" : 1,
					"patching_rect" : [ 224.098055612295866, 636.923137664794922, 20.67669153213501, 20.67669153213501 ],
					"presentation" : 1,
					"presentation_rect" : [ 217.502924571947915, 523.483146727085114, 20.67669153213501, 20.67669153213501 ],
					"saved_attribute_attributes" : 					{
						"activebgcolor" : 						{
							"expression" : "themecolor.theme_editing_bgcolor"
						}
,
						"valueof" : 						{
							"parameter_enum" : [ "off", "on" ],
							"parameter_longname" : "live.button[14]",
							"parameter_mmax" : 1,
							"parameter_modmode" : 0,
							"parameter_shortname" : "live.button",
							"parameter_type" : 2
						}

					}
,
					"varname" : "live.button[14]"
				}

			}
, 			{
				"box" : 				{
					"id" : "obj-57",
					"maxclass" : "comment",
					"numinlets" : 1,
					"numoutlets" : 0,
					"patching_rect" : [ 250.125450979918242, 659.525875747203827, 27.460425473749638, 20.0 ],
					"presentation" : 1,
					"presentation_rect" : [ 236.930715393275023, 523.821492493152618, 27.460425473749638, 20.0 ],
					"text" : "7",
					"textjustification" : 1
				}

			}
, 			{
				"box" : 				{
					"activebgcolor" : [ 0.898039, 0.898039, 0.898039, 1.0 ],
					"id" : "obj-58",
					"ignoreclick" : 1,
					"maxclass" : "live.button",
					"numinlets" : 1,
					"numoutlets" : 1,
					"outlettype" : [ "" ],
					"parameter_enable" : 1,
					"patching_rect" : [ 252.511101604551072, 636.923137664794922, 20.67669153213501, 20.67669153213501 ],
					"presentation" : 1,
					"presentation_rect" : [ 240.322582364082336, 523.483146727085114, 20.67669153213501, 20.67669153213501 ],
					"saved_attribute_attributes" : 					{
						"activebgcolor" : 						{
							"expression" : "themecolor.theme_editing_bgcolor"
						}
,
						"valueof" : 						{
							"parameter_enum" : [ "off", "on" ],
							"parameter_longname" : "live.button[15]",
							"parameter_mmax" : 1,
							"parameter_modmode" : 0,
							"parameter_shortname" : "live.button",
							"parameter_type" : 2
						}

					}
,
					"varname" : "live.button[15]"
				}

			}
, 			{
				"box" : 				{
					"id" : "obj-59",
					"maxclass" : "comment",
					"numinlets" : 1,
					"numoutlets" : 0,
					"patching_rect" : [ 279.577503632754087, 659.525875747203827, 27.460425473749638, 20.0 ],
					"presentation" : 1,
					"presentation_rect" : [ 259.607406925410032, 523.821492493152618, 27.460425473749638, 20.0 ],
					"text" : "8",
					"textjustification" : 1
				}

			}
, 			{
				"box" : 				{
					"activebgcolor" : [ 0.898039, 0.898039, 0.898039, 1.0 ],
					"id" : "obj-60",
					"ignoreclick" : 1,
					"maxclass" : "live.button",
					"numinlets" : 1,
					"numoutlets" : 1,
					"outlettype" : [ "" ],
					"parameter_enable" : 1,
					"patching_rect" : [ 281.116556237654549, 636.923137664794922, 20.67669153213501, 20.67669153213501 ],
					"presentation" : 1,
					"presentation_rect" : [ 262.999273896217346, 523.483146727085114, 20.67669153213501, 20.67669153213501 ],
					"saved_attribute_attributes" : 					{
						"activebgcolor" : 						{
							"expression" : "themecolor.theme_editing_bgcolor"
						}
,
						"valueof" : 						{
							"parameter_enum" : [ "off", "on" ],
							"parameter_longname" : "live.button[16]",
							"parameter_mmax" : 1,
							"parameter_modmode" : 0,
							"parameter_shortname" : "live.button",
							"parameter_type" : 2
						}

					}
,
					"varname" : "live.button[16]"
				}

			}
, 			{
				"box" : 				{
					"id" : "obj-37",
					"maxclass" : "comment",
					"numinlets" : 1,
					"numoutlets" : 0,
					"patching_rect" : [ 303.424635469913483, 659.525875747203827, 27.460425473749638, 20.0 ],
					"presentation" : 1,
					"presentation_rect" : [ 191.434366069005591, 546.498184025287628, 27.460425473749638, 20.0 ],
					"text" : "9",
					"textjustification" : 1
				}

			}
, 			{
				"box" : 				{
					"activebgcolor" : [ 0.898039, 0.898039, 0.898039, 1.0 ],
					"id" : "obj-38",
					"ignoreclick" : 1,
					"maxclass" : "live.button",
					"numinlets" : 1,
					"numoutlets" : 1,
					"outlettype" : [ "" ],
					"parameter_enable" : 1,
					"patching_rect" : [ 309.722010870758027, 636.923137664794922, 20.67669153213501, 20.67669153213501 ],
					"presentation" : 1,
					"presentation_rect" : [ 194.826233039812905, 546.159838259220123, 20.67669153213501, 20.67669153213501 ],
					"saved_attribute_attributes" : 					{
						"activebgcolor" : 						{
							"expression" : "themecolor.theme_editing_bgcolor"
						}
,
						"valueof" : 						{
							"parameter_enum" : [ "off", "on" ],
							"parameter_longname" : "live.button[5]",
							"parameter_mmax" : 1,
							"parameter_modmode" : 0,
							"parameter_shortname" : "live.button",
							"parameter_type" : 2
						}

					}
,
					"varname" : "live.button[5]"
				}

			}
, 			{
				"box" : 				{
					"id" : "obj-39",
					"maxclass" : "comment",
					"numinlets" : 1,
					"numoutlets" : 0,
					"patching_rect" : [ 332.876688122749329, 659.525875747203827, 27.460425473749638, 20.0 ],
					"presentation" : 1,
					"presentation_rect" : [ 214.111057601140601, 546.498184025287628, 27.460425473749638, 20.0 ],
					"text" : "10",
					"textjustification" : 1
				}

			}
, 			{
				"box" : 				{
					"activebgcolor" : [ 0.898039, 0.898039, 0.898039, 1.0 ],
					"id" : "obj-40",
					"ignoreclick" : 1,
					"maxclass" : "live.button",
					"numinlets" : 1,
					"numoutlets" : 1,
					"outlettype" : [ "" ],
					"parameter_enable" : 1,
					"patching_rect" : [ 338.327465503861504, 636.923137664794922, 20.67669153213501, 20.67669153213501 ],
					"presentation" : 1,
					"presentation_rect" : [ 217.502924571947915, 546.159838259220123, 20.67669153213501, 20.67669153213501 ],
					"saved_attribute_attributes" : 					{
						"activebgcolor" : 						{
							"expression" : "themecolor.theme_editing_bgcolor"
						}
,
						"valueof" : 						{
							"parameter_enum" : [ "off", "on" ],
							"parameter_longname" : "live.button[6]",
							"parameter_mmax" : 1,
							"parameter_modmode" : 0,
							"parameter_shortname" : "live.button",
							"parameter_type" : 2
						}

					}
,
					"varname" : "live.button[6]"
				}

			}
, 			{
				"box" : 				{
					"id" : "obj-41",
					"maxclass" : "comment",
					"numinlets" : 1,
					"numoutlets" : 0,
					"patching_rect" : [ 362.328740775585175, 659.525875747203827, 27.460425473749638, 20.0 ],
					"presentation" : 1,
					"presentation_rect" : [ 236.930715393275023, 546.498184025287628, 27.460425473749638, 20.0 ],
					"text" : "11",
					"textjustification" : 1
				}

			}
, 			{
				"box" : 				{
					"activebgcolor" : [ 0.898039, 0.898039, 0.898039, 1.0 ],
					"id" : "obj-42",
					"ignoreclick" : 1,
					"maxclass" : "live.button",
					"numinlets" : 1,
					"numoutlets" : 1,
					"outlettype" : [ "" ],
					"parameter_enable" : 1,
					"patching_rect" : [ 365.753398060798645, 636.923137664794922, 20.67669153213501, 20.67669153213501 ],
					"presentation" : 1,
					"presentation_rect" : [ 240.322582364082336, 546.159838259220123, 20.67669153213501, 20.67669153213501 ],
					"saved_attribute_attributes" : 					{
						"activebgcolor" : 						{
							"expression" : "themecolor.theme_editing_bgcolor"
						}
,
						"valueof" : 						{
							"parameter_enum" : [ "off", "on" ],
							"parameter_longname" : "live.button[7]",
							"parameter_mmax" : 1,
							"parameter_modmode" : 0,
							"parameter_shortname" : "live.button",
							"parameter_type" : 2
						}

					}
,
					"varname" : "live.button[7]"
				}

			}
, 			{
				"box" : 				{
					"id" : "obj-43",
					"maxclass" : "comment",
					"numinlets" : 1,
					"numoutlets" : 0,
					"patching_rect" : [ 391.780793428421021, 659.525875747203827, 27.460425473749638, 20.0 ],
					"presentation" : 1,
					"presentation_rect" : [ 259.607406925410032, 545.821492493152618, 27.460425473749638, 20.0 ],
					"text" : "12",
					"textjustification" : 1
				}

			}
, 			{
				"box" : 				{
					"activebgcolor" : [ 0.898039, 0.898039, 0.898039, 1.0 ],
					"id" : "obj-44",
					"ignoreclick" : 1,
					"maxclass" : "live.button",
					"numinlets" : 1,
					"numoutlets" : 1,
					"outlettype" : [ "" ],
					"parameter_enable" : 1,
					"patching_rect" : [ 395.205450713634491, 636.923137664794922, 20.67669153213501, 20.67669153213501 ],
					"presentation" : 1,
					"presentation_rect" : [ 262.999273896217346, 546.159838259220123, 20.67669153213501, 20.67669153213501 ],
					"saved_attribute_attributes" : 					{
						"activebgcolor" : 						{
							"expression" : "themecolor.theme_editing_bgcolor"
						}
,
						"valueof" : 						{
							"parameter_enum" : [ "off", "on" ],
							"parameter_longname" : "live.button[8]",
							"parameter_mmax" : 1,
							"parameter_modmode" : 0,
							"parameter_shortname" : "live.button",
							"parameter_type" : 2
						}

					}
,
					"varname" : "live.button[8]"
				}

			}
, 			{
				"box" : 				{
					"id" : "obj-29",
					"maxclass" : "comment",
					"numinlets" : 1,
					"numoutlets" : 0,
					"patching_rect" : [ 417.808188796043396, 659.525875747203827, 27.460425473749638, 20.0 ],
					"presentation" : 1,
					"presentation_rect" : [ 191.434366069005591, 569.174875557422638, 27.460425473749638, 20.0 ],
					"text" : "13",
					"textjustification" : 1
				}

			}
, 			{
				"box" : 				{
					"activebgcolor" : [ 0.898039, 0.898039, 0.898039, 1.0 ],
					"id" : "obj-30",
					"ignoreclick" : 1,
					"maxclass" : "live.button",
					"numinlets" : 1,
					"numoutlets" : 1,
					"outlettype" : [ "" ],
					"parameter_enable" : 1,
					"patching_rect" : [ 424.143829403171935, 636.923137664794922, 20.67669153213501, 20.67669153213501 ],
					"presentation" : 1,
					"presentation_rect" : [ 194.826233039812905, 568.836529791355133, 20.67669153213501, 20.67669153213501 ],
					"saved_attribute_attributes" : 					{
						"activebgcolor" : 						{
							"expression" : "themecolor.theme_editing_bgcolor"
						}
,
						"valueof" : 						{
							"parameter_enum" : [ "off", "on" ],
							"parameter_longname" : "live.button[3]",
							"parameter_mmax" : 1,
							"parameter_modmode" : 0,
							"parameter_shortname" : "live.button",
							"parameter_type" : 2
						}

					}
,
					"varname" : "live.button[3]"
				}

			}
, 			{
				"box" : 				{
					"id" : "obj-31",
					"maxclass" : "comment",
					"numinlets" : 1,
					"numoutlets" : 0,
					"patching_rect" : [ 447.260241448879242, 659.525875747203827, 27.460425473749638, 20.0 ],
					"presentation" : 1,
					"presentation_rect" : [ 214.111057601140601, 569.174875557422638, 27.460425473749638, 20.0 ],
					"text" : "14",
					"textjustification" : 1
				}

			}
, 			{
				"box" : 				{
					"activebgcolor" : [ 0.898039, 0.898039, 0.898039, 1.0 ],
					"id" : "obj-32",
					"ignoreclick" : 1,
					"maxclass" : "live.button",
					"numinlets" : 1,
					"numoutlets" : 1,
					"outlettype" : [ "" ],
					"parameter_enable" : 1,
					"patching_rect" : [ 452.749284036275412, 636.923137664794922, 20.67669153213501, 20.67669153213501 ],
					"presentation" : 1,
					"presentation_rect" : [ 217.502924571947915, 568.836529791355133, 20.67669153213501, 20.67669153213501 ],
					"saved_attribute_attributes" : 					{
						"activebgcolor" : 						{
							"expression" : "themecolor.theme_editing_bgcolor"
						}
,
						"valueof" : 						{
							"parameter_enum" : [ "off", "on" ],
							"parameter_longname" : "live.button[4]",
							"parameter_mmax" : 1,
							"parameter_modmode" : 0,
							"parameter_shortname" : "live.button",
							"parameter_type" : 2
						}

					}
,
					"varname" : "live.button[4]"
				}

			}
, 			{
				"box" : 				{
					"id" : "obj-27",
					"maxclass" : "newobj",
					"numinlets" : 17,
					"numoutlets" : 17,
					"outlettype" : [ "", "", "", "", "", "", "", "", "", "", "", "", "", "", "", "", "" ],
					"patching_rect" : [ 80.87837380593021, 563.243218064308167, 476.687274129655634, 22.0 ],
					"text" : "route 1 2 3 4 5 6 7 8 9 10 11 12 13 14 15 16"
				}

			}
, 			{
				"box" : 				{
					"id" : "obj-17",
					"maxclass" : "newobj",
					"numinlets" : 7,
					"numoutlets" : 2,
					"outlettype" : [ "int", "" ],
					"patching_rect" : [ 80.701753616333008, 469.298241138458252, 82.0, 22.0 ],
					"text" : "midiformat"
				}

			}
, 			{
				"box" : 				{
					"id" : "obj-12",
					"maxclass" : "newobj",
					"numinlets" : 1,
					"numoutlets" : 8,
					"outlettype" : [ "", "", "", "int", "int", "", "int", "" ],
					"patching_rect" : [ 80.701753616333008, 506.140346050262451, 92.5, 22.0 ],
					"text" : "midiparse"
				}

			}
, 			{
				"box" : 				{
					"id" : "obj-9",
					"maxclass" : "comment",
					"numinlets" : 1,
					"numoutlets" : 0,
					"patching_rect" : [ 477.107900857925415, 659.599829196929932, 27.460425473749638, 20.0 ],
					"presentation" : 1,
					"presentation_rect" : [ 236.930715393275023, 569.174875557422638, 27.460425473749638, 20.0 ],
					"text" : "15",
					"textjustification" : 1
				}

			}
, 			{
				"box" : 				{
					"activebgcolor" : [ 0.898039, 0.898039, 0.898039, 1.0 ],
					"id" : "obj-10",
					"ignoreclick" : 1,
					"maxclass" : "live.button",
					"numinlets" : 1,
					"numoutlets" : 1,
					"outlettype" : [ "" ],
					"parameter_enable" : 1,
					"patching_rect" : [ 481.354738669378889, 636.923137664794922, 20.67669153213501, 20.67669153213501 ],
					"presentation" : 1,
					"presentation_rect" : [ 240.322582364082336, 568.836529791355133, 20.67669153213501, 20.67669153213501 ],
					"saved_attribute_attributes" : 					{
						"activebgcolor" : 						{
							"expression" : "themecolor.theme_editing_bgcolor"
						}
,
						"valueof" : 						{
							"parameter_enum" : [ "off", "on" ],
							"parameter_longname" : "live.button[2]",
							"parameter_mmax" : 1,
							"parameter_modmode" : 0,
							"parameter_shortname" : "live.button",
							"parameter_type" : 2
						}

					}
,
					"varname" : "live.button[2]"
				}

			}
, 			{
				"box" : 				{
					"id" : "obj-7",
					"maxclass" : "comment",
					"numinlets" : 1,
					"numoutlets" : 0,
					"patching_rect" : [ 506.568326331675053, 659.336931943893433, 27.460425473749638, 20.0 ],
					"presentation" : 1,
					"presentation_rect" : [ 259.607406925410032, 569.174875557422638, 27.460425473749638, 20.0 ],
					"text" : "16",
					"textjustification" : 1
				}

			}
, 			{
				"box" : 				{
					"activebgcolor" : [ 0.898039, 0.898039, 0.898039, 1.0 ],
					"id" : "obj-8",
					"ignoreclick" : 1,
					"maxclass" : "live.button",
					"numinlets" : 1,
					"numoutlets" : 1,
					"outlettype" : [ "" ],
					"parameter_enable" : 1,
					"patching_rect" : [ 509.960193302482367, 636.923137664794922, 20.67669153213501, 20.67669153213501 ],
					"presentation" : 1,
					"presentation_rect" : [ 262.999273896217346, 568.836529791355133, 20.67669153213501, 20.67669153213501 ],
					"saved_attribute_attributes" : 					{
						"activebgcolor" : 						{
							"expression" : "themecolor.theme_editing_bgcolor"
						}
,
						"valueof" : 						{
							"parameter_enum" : [ "off", "on" ],
							"parameter_longname" : "live.button[1]",
							"parameter_mmax" : 1,
							"parameter_modmode" : 0,
							"parameter_shortname" : "live.button",
							"parameter_type" : 2
						}

					}
,
					"varname" : "live.button[1]"
				}

			}
 ],
		"lines" : [ 			{
				"patchline" : 				{
					"destination" : [ "obj-27", 0 ],
					"source" : [ "obj-12", 6 ]
				}

			}
, 			{
				"patchline" : 				{
					"destination" : [ "obj-12", 0 ],
					"source" : [ "obj-17", 0 ]
				}

			}
, 			{
				"patchline" : 				{
					"destination" : [ "obj-10", 0 ],
					"source" : [ "obj-27", 14 ]
				}

			}
, 			{
				"patchline" : 				{
					"destination" : [ "obj-30", 0 ],
					"source" : [ "obj-27", 12 ]
				}

			}
, 			{
				"patchline" : 				{
					"destination" : [ "obj-32", 0 ],
					"source" : [ "obj-27", 13 ]
				}

			}
, 			{
				"patchline" : 				{
					"destination" : [ "obj-38", 0 ],
					"source" : [ "obj-27", 8 ]
				}

			}
, 			{
				"patchline" : 				{
					"destination" : [ "obj-40", 0 ],
					"source" : [ "obj-27", 9 ]
				}

			}
, 			{
				"patchline" : 				{
					"destination" : [ "obj-42", 0 ],
					"source" : [ "obj-27", 10 ]
				}

			}
, 			{
				"patchline" : 				{
					"destination" : [ "obj-44", 0 ],
					"source" : [ "obj-27", 11 ]
				}

			}
, 			{
				"patchline" : 				{
					"destination" : [ "obj-46", 0 ],
					"source" : [ "obj-27", 0 ]
				}

			}
, 			{
				"patchline" : 				{
					"destination" : [ "obj-48", 0 ],
					"source" : [ "obj-27", 1 ]
				}

			}
, 			{
				"patchline" : 				{
					"destination" : [ "obj-50", 0 ],
					"source" : [ "obj-27", 2 ]
				}

			}
, 			{
				"patchline" : 				{
					"destination" : [ "obj-52", 0 ],
					"source" : [ "obj-27", 3 ]
				}

			}
, 			{
				"patchline" : 				{
					"destination" : [ "obj-54", 0 ],
					"source" : [ "obj-27", 4 ]
				}

			}
, 			{
				"patchline" : 				{
					"destination" : [ "obj-56", 0 ],
					"source" : [ "obj-27", 5 ]
				}

			}
, 			{
				"patchline" : 				{
					"destination" : [ "obj-58", 0 ],
					"source" : [ "obj-27", 6 ]
				}

			}
, 			{
				"patchline" : 				{
					"destination" : [ "obj-60", 0 ],
					"source" : [ "obj-27", 7 ]
				}

			}
, 			{
				"patchline" : 				{
					"destination" : [ "obj-8", 0 ],
					"source" : [ "obj-27", 15 ]
				}

			}
, 			{
				"patchline" : 				{
					"destination" : [ "obj-17", 0 ],
					"source" : [ "obj-64", 0 ]
				}

			}
 ],
		"parameters" : 		{
			"obj-10" : [ "live.button[2]", "live.button", 0 ],
			"obj-30" : [ "live.button[3]", "live.button", 0 ],
			"obj-32" : [ "live.button[4]", "live.button", 0 ],
			"obj-38" : [ "live.button[5]", "live.button", 0 ],
			"obj-40" : [ "live.button[6]", "live.button", 0 ],
			"obj-42" : [ "live.button[7]", "live.button", 0 ],
			"obj-44" : [ "live.button[8]", "live.button", 0 ],
			"obj-46" : [ "live.button[9]", "live.button", 0 ],
			"obj-48" : [ "live.button[10]", "live.button", 0 ],
			"obj-50" : [ "live.button[11]", "live.button", 0 ],
			"obj-52" : [ "live.button[12]", "live.button", 0 ],
			"obj-54" : [ "live.button[13]", "live.button", 0 ],
			"obj-56" : [ "live.button[14]", "live.button", 0 ],
			"obj-58" : [ "live.button[15]", "live.button", 0 ],
			"obj-60" : [ "live.button[16]", "live.button", 0 ],
			"obj-8" : [ "live.button[1]", "live.button", 0 ],
			"parameterbanks" : 			{
				"0" : 				{
					"index" : 0,
					"name" : "",
					"parameters" : [ "-", "-", "-", "-", "-", "-", "-", "-" ]
				}

			}
,
			"inherited_shortname" : 1
		}
,
		"dependency_cache" : [  ],
		"autosave" : 0
	}

}
